<svg xmlns="http://www.w3.org/2000/svg" viewBox="0 0 64 64" width="64" height="64">
  <defs>
    <linearGradient id="fs" x1="0%" y1="0%" x2="100%" y2="100%">
      <stop offset="0%" style="stop-color:#FF8C42;stop-opacity:1" />
      <stop offset="60%" style="stop-color:#E85D75;stop-opacity:1" />
      <stop offset="100%" style="stop-color:#5E4B8B;stop-opacity:1" />
    </linearGradient>
    <linearGradient id="fo" x1="0%" y1="0%" x2="0%" y2="100%">
      <stop offset="0%" style="stop-color:#6BA3C9;stop-opacity:1" />
      <stop offset="100%" style="stop-color:#1E3A5F;stop-opacity:1" />
    </linearGradient>
  </defs>
  <rect width="64" height="64" rx="12" fill="#FAF3E7"/>
  <circle cx="32" cy="36" r="11" fill="url(#fs)"/>
  <path d="M 6,44 Q 16,40 26,44 T 46,44 T 64,44 L 64,64 L 0,64 L 0,44 Z" fill="url(#fo)"/>
  <g transform="translate(47, 26)">
    <rect x="-1.2" y="0" width="2.4" height="22" rx="1" fill="#4A3728"/>
    <ellipse cx="0" cy="-2" rx="9.5" ry="4.5" fill="#3D7A3D" transform="rotate(-30 0 -2)"/>
    <ellipse cx="0" cy="-2" rx="9.5" ry="4.5" fill="#2E6B2E" transform="rotate(30 0 -2)"/>
    <ellipse cx="0" cy="-2" rx="9.5" ry="4.5" fill="#3D7A3D" transform="rotate(0 0 -2)"/>
  </g>
</svg>
